Coordinates
version=1
nRows=22
nColumns=24
inDegrees=yes

Units are S.I. units (second, meters, Newtons, ...)
Angles are in degrees.

endheader
time	pelvis_tilt	pelvis_list	pelvis_rotation	pelvis_tx	pelvis_ty	pelvis_tz	hip_flexion_r	hip_adduction_r	hip_rotation_r	knee_angle_r	ankle_angle_r	subtalar_angle_r	mtp_angle_r	hip_flexion_l	hip_adduction_l	hip_rotation_l	knee_angle_l	ankle_angle_l	subtalar_angle_l	mtp_angle_l	lumbar_extension	lumbar_bending	lumbar_rotation
      1.72500000	     24.75700851	     -1.87836499	      0.37354892	     -0.15193479	      1.03736722	     -0.00084021	     -1.57836578	     -2.84221217	    -10.86878995	    -30.76403698	      4.65653043	    -11.27975818	     27.78181268	    -29.96416550	      0.25945359	     -1.77224398	     -8.33356600	     15.47059524	     -0.45112728	     -0.45135993	    -40.65488819	      0.59155930	      0.53113401
      1.73000000	     24.72710028	     -1.85784275	      0.38714412	     -0.14682001	      1.03682951	     -0.00050755	     -1.67894177	     -2.74953406	    -10.92786744	    -28.93908999	      4.54936193	    -10.91297531	     27.64145408	    -30.39890771	      0.23772703	     -1.89437490	     -8.06834605	     15.60656837	     -0.18202462	     -0.39120700	    -40.66656230	      0.57035474	      0.49547254
      1.73500000	     24.68676292	     -1.82213585	      0.39383130	     -0.14168821	      1.03622694	     -0.00015355	     -1.78307309	     -2.66880211	    -10.97864077	    -27.11000697	      4.42962185	    -10.49973625	     27.51953389	    -30.82103455	      0.23349311	     -2.01700488	     -7.80864720	     15.75096723	      0.09169557	     -0.32810697	    -40.66696738	      0.53205971	      0.44876282
      1.74000000	     24.63657157	     -1.76684085	      0.39779207	     -0.13654960	      1.03557762	      0.00023842	     -1.89252285	     -2.60352575	    -11.03210631	    -25.27769432	      4.28513032	    -10.03963851	     27.40685278	    -31.22451030	      0.24631886	     -2.13755075	     -7.56274880	     15.87945735	      0.37440925	     -0.26193218	    -40.65698015	      0.47043661	      0.40383082
      1.74500000	     24.59651553	     -1.71047584	      0.40380627	     -0.13137631	      1.03489934	      0.00064518	     -2.03216259	     -2.53470035	    -11.09148060	    -23.44396279	      4.11491429	     -9.54416499	     27.30829438	    -31.64312889	      0.25839833	     -2.25992659	     -7.31338428	     16.01311660	      0.65602480	     -0.19231757	    -40.65496229	      0.40915063	      0.34132152
      1.75000000	     24.54955733	     -1.63741471	      0.40677904	     -0.12618943	      1.03417621	      0.00106710	     -2.17417613	     -2.48143999	    -11.15779024	    -21.62685499	      3.92715135	     -9.02553061	     27.22072512	    -32.04561700	      0.28671121	     -2.37713089	     -7.08230920	     16.14175438	      0.94192373	     -0.11860029	    -40.64524324	      0.33080509	      0.28254611
      1.75500000	     24.50864028	     -1.55801649	      0.41907975	     -0.12097996	      1.03343172	      0.00150100	     -2.33894286	     -2.42861085	    -11.23575076	    -19.82105746	      3.70962428	     -8.49436559	     27.14252054	    -32.45001331	      0.31426546	     -2.48696561	     -6.86206341	     16.26846791	      1.23250265	     -0.03946885	    -40.63959516	      0.25032960	      0.21308088
      1.76000000	     24.46869412	     -1.46296094	      0.42789121	     -0.11576030	      1.03264976	      0.00196346	     -2.50717239	     -2.39008622	    -11.32471484	    -18.05580610	      3.47415572	     -7.95830344	     27.07054003	    -32.84859703	      0.35608196	     -2.58846539	     -6.65487907	     16.39116821	      1.51784563	      0.04681294	    -40.63635656	      0.15188616	      0.14312388
      1.76500000	     24.45449640	     -1.36757258	      0.44791199	     -0.11050824	      1.03186622	      0.00242729	     -2.71707572	     -2.34674567	    -11.43545100	    -16.31883578	      3.22391204	     -7.42486521	     27.00432147	    -33.27246471	      0.39105972	     -2.68261502	     -6.45670662	     16.51279377	      1.80888309	      0.14264321	    -40.65636094	      0.05912684	      0.06465999
      1.77000000	     24.40932298	     -1.26092379	      0.46763182	     -0.10522335	      1.03102609	      0.00290773	     -2.88770975	     -2.31441365	    -11.56272331	    -14.65067161	      2.95720678	     -6.90473792	     26.94125925	    -33.65568223	      0.43473203	     -2.76503990	     -6.27410129	     16.63681097	      2.08573246	      0.24911023	    -40.64192390	     -0.04396105	     -0.02736682
      1.77500000	     24.39664840	     -1.15580220	      0.49900479	     -0.09991417	      1.03019228	      0.00339468	     -3.09738979	     -2.27637131	    -11.71839360	    -13.04199730	      2.68405222	     -6.39188958	     26.88343731	    -34.07021009	      0.46879614	     -2.83976125	     -6.10117729	     16.75327087	      2.35835128	      0.36368513	    -40.66042333	     -0.14073670	     -0.12507290
      1.78000000	     24.38023969	     -1.04413562	      0.53729405	     -0.09457356	      1.02934154	      0.00387565	     -3.29654854	     -2.24455645	    -11.90181809	    -11.51735447	      2.40821083	     -5.89933483	     26.82825050	    -34.47096879	      0.50397061	     -2.90018962	     -5.94932665	     16.86763554	      2.62530342	      0.48677317	    -40.67224844	     -0.23713273	     -0.23319706
      1.78500000	     24.36424374	     -0.93844387	      0.58838682	     -0.08919896	      1.02848079	      0.00436218	     -3.48878326	     -2.20278138	    -12.11610310	    -10.08463454	      2.14738759	     -5.41973306	     26.77375866	    -34.86405496	      0.52373140	     -2.94640221	     -5.81562482	     16.98378706	      2.88519576	      0.62554709	    -40.68185107	     -0.32202829	     -0.34247225
      1.79000000	     24.36036456	     -0.83038354	      0.64053698	     -0.08380550	      1.02761259	      0.00485724	     -3.67722211	     -2.16352181	    -12.35036448	     -8.76332626	      1.90623731	     -4.96332255	     26.71577095	    -35.26199950	      0.54346943	     -2.98674303	     -5.69981836	     17.09744321	      3.13967557	      0.78279221	    -40.70354156	     -0.40756903	     -0.45253893
      1.79500000	     24.35456428	     -0.73321657	      0.70756606	     -0.07837797	      1.02674541	      0.00534875	     -3.84977431	     -2.11046238	    -12.61411927	     -7.55513815	      1.68577578	     -4.53694476	     26.65294457	    -35.64620158	      0.54257072	     -3.01761414	     -5.60820032	     17.21148594	      3.38596108	      0.95840509	    -40.72078100	     -0.47450365	     -0.56872875
      1.80000000	     24.36541876	     -0.64760553	      0.78483762	     -0.07293288	      1.02589104	      0.00584092	     -4.02198026	     -2.04317662	    -12.90386971	     -6.46976366	      1.50640047	     -4.12833391	     26.57885247	    -36.03641469	      0.52242296	     -3.03866376	     -5.54181740	     17.32454258	      3.62693890	      1.17076871	    -40.75516024	     -0.52454427	     -0.67388773
      1.80500000	     24.38055239	     -0.58151291	      0.87592378	     -0.06742362	      1.02505173	      0.00632691	     -4.18116735	     -1.95392738	    -13.22667206	     -5.51287684	      1.34659702	     -3.75676825	     26.49908531	    -36.43046784	      0.47514875	     -3.06432907	     -5.48130386	     17.42948053	      3.85698914	      1.39753078	    -40.78680544	     -0.54611567	     -0.79829678
      1.81000000	     24.39242682	     -0.51772210	      0.97088160	     -0.06191580	      1.02421682	      0.00681992	     -4.30942529	     -1.86329959	    -13.55174384	     -4.69665724	      1.22854345	     -3.41645783	     26.41184725	    -36.80200452	      0.42136922	     -3.08144360	     -5.45608322	     17.53030702	      4.07832142	      1.64821327	    -40.81693006	     -0.56495163	     -0.91223604
      1.81500000	     24.38508600	     -0.46310581	      1.06292622	     -0.05640092	      1.02336502	      0.00730821	     -4.37519013	     -1.77343244	    -13.90486606	     -4.06129036	      1.28804129	     -2.91477480	     25.35969129	    -37.13365066	      0.36252807	     -3.07612632	     -5.45580211	     17.37463438	      4.13836862	      4.42072884	    -40.82684416	     -0.57338850	     -1.00959411
      1.82000000	     24.43300044	     -0.42671511	      1.17561507	     -0.05086016	      1.02260368	      0.00782840	     -4.50689573	     -1.64746497	    -14.20808704	     -3.49529732	      1.15065656	     -2.79547793	     25.34671527	    -37.52581550	      0.26737655	     -3.06892118	     -5.46404363	     17.44976259	      4.32405805	      4.49628813	    -40.89496003	     -0.55804154	     -1.11961047
      1.82500000	     24.44527193	     -0.42555828	      1.30156226	     -0.04524198	      1.02181342	      0.00832471	     -4.57260272	     -1.49246825	    -14.54232004	     -3.08571623	      1.11571104	     -2.57615482	     25.33938308	    -37.85825478	      0.13146435	     -3.09010555	     -5.52459433	     17.58116095	      4.53414445	      4.60952312	    -40.91483907	     -0.49905057	     -1.20882255
      1.83000000	     24.49175067	     -0.43276919	      1.43436901	     -0.03959576	      1.02107388	      0.00883369	     -4.65411718	     -1.33126428	    -14.88528475	     -2.81464922	      1.13737183	     -2.35150502	     25.32232289	    -38.22391420	     -0.01984739	     -3.12147469	     -5.59051413	     17.67825863	      4.75386092	      4.77104513	    -40.97043124	     -0.42914526	     -1.31079189
